<?xml version="1.0" encoding="us-ascii" standalone="no"?><svg xmlns="http://www.w3.org/2000/svg" xmlns:xlink="http://www.w3.org/1999/xlink" contentStyleType="text/css" height="371px" preserveAspectRatio="none" style="width:2241px;height:371px;background:#F0F0F0;" version="1.1" viewBox="0 0 2241 371" width="2241px" zoomAndPan="magnify"><defs/><g><rect fill="#F0F0F0" height="371" style="stroke:none;stroke-width:1.0;" width="2241" x="0" y="0"/><!--class Subject--><g id="elem_Subject"><rect codeLine="26" fill="#FFFFFF" height="105.2038" id="Subject" rx="2.5" ry="2.5" style="stroke:#000000;stroke-width:0.5;" width="275" x="7" y="87.93"/><ellipse cx="121.25" cy="103.93" fill="#B4A7E5" rx="11" ry="11" style="stroke:#181818;stroke-width:1.0;"/><path d="M123.3438,110.43 L118.4375,110.43 L118.4375,109.055 L119.8594,108.7425 L119.8594,99.4613 L118.4375,99.1175 L118.4375,97.7581 L123.3438,97.7581 L123.3438,99.1175 L121.9219,99.4613 L121.9219,108.7425 L123.3438,109.055 L123.3438,110.43 Z " fill="#000000"/><text fill="#000000" font-family="sans-serif" font-size="12" font-style="italic" lengthAdjust="spacing" textLength="38" x="141.75" y="108.586">Subject</text><line style="stroke:#000000;stroke-width:0.5;" x1="8" x2="281" y1="119.93" y2="119.93"/><line style="stroke:#000000;stroke-width:0.5;" x1="8" x2="281" y1="127.93" y2="127.93"/><ellipse cx="18" cy="142.964" fill="#84BE84" rx="3" ry="3" style="stroke:#038048;stroke-width:1.0;"/><text fill="#000000" font-family="sans-serif" font-size="14" lengthAdjust="spacing" textLength="225" x="27" y="146.8959">addObserver(observer: Observer)</text><ellipse cx="18" cy="162.0319" fill="#84BE84" rx="3" ry="3" style="stroke:#038048;stroke-width:1.0;"/><text fill="#000000" font-family="sans-serif" font-size="14" lengthAdjust="spacing" textLength="249" x="27" y="165.9639">removeObserver(observer: Observer)</text><rect fill="#F24D5C" height="6" style="stroke:#C82930;stroke-width:1.0;" width="6" x="15" y="178.0998"/><text fill="#000000" font-family="sans-serif" font-size="14" lengthAdjust="spacing" textLength="115" x="27" y="185.0318">notifyObservers()</text></g><!--class WeatherStation--><g id="elem_WeatherStation"><rect codeLine="32" fill="#FFFFFF" height="219.6113" id="WeatherStation" rx="2.5" ry="2.5" style="stroke:#000000;stroke-width:0.5;" width="490" x="343" y="30.73"/><ellipse cx="540.25" cy="46.73" fill="#ADD1B2" rx="11" ry="11" style="stroke:#181818;stroke-width:1.0;"/><path d="M540.3594,42.2613 Q539.4375,42.2613 538.7031,42.5738 Q537.9844,42.8863 537.4844,43.48 Q536.9844,44.0581 536.7031,44.9331 Q536.4375,45.8081 536.4375,46.9019 Q536.4375,48.3394 536.875,49.3863 Q537.3281,50.4331 538.1719,50.98 Q539.0313,51.5269 540.3438,51.5269 Q541.125,51.5269 541.8125,51.4019 Q542.5156,51.2613 543.5156,50.9488 L543.5156,52.8238 Q542.6563,53.1519 541.8906,53.2769 Q541.1406,53.4019 540.125,53.4019 Q538.2031,53.4019 536.8906,52.605 Q535.5938,51.7925 534.9375,50.3238 Q534.2813,48.8394 534.2813,46.8706 Q534.2813,45.4488 534.6719,44.2769 Q535.0781,43.0894 535.8594,42.2144 Q536.6406,41.3394 537.7813,40.8706 Q538.9219,40.3863 540.3906,40.3863 Q541.3438,40.3863 542.2344,40.5894 Q543.1406,40.7769 544.0781,41.2456 L543.25,43.0269 Q542.4688,42.6519 541.8125,42.4644 Q541.1563,42.2613 540.3594,42.2613 Z " fill="#000000"/><text fill="#000000" font-family="sans-serif" font-size="12" lengthAdjust="spacing" textLength="87" x="560.75" y="51.386">WeatherStation</text><line style="stroke:#000000;stroke-width:0.5;" x1="344" x2="832" y1="62.73" y2="62.73"/><rect fill="none" height="6" style="stroke:#C82930;stroke-width:1.0;" width="6" x="351" y="74.764"/><text fill="#000000" font-family="sans-serif" font-size="14" lengthAdjust="spacing" textLength="125" x="363" y="81.6959">float temperature_</text><rect fill="none" height="6" style="stroke:#C82930;stroke-width:1.0;" width="6" x="351" y="93.8319"/><text fill="#000000" font-family="sans-serif" font-size="14" lengthAdjust="spacing" textLength="100" x="363" y="100.7639">float humidity_</text><rect fill="none" height="6" style="stroke:#C82930;stroke-width:1.0;" width="6" x="351" y="112.8998"/><text fill="#000000" font-family="sans-serif" font-size="14" lengthAdjust="spacing" textLength="100" x="363" y="119.8318">float pressure_</text><rect fill="none" height="6" style="stroke:#C82930;stroke-width:1.0;" width="6" x="351" y="131.9677"/><text fill="#000000" font-family="sans-serif" font-size="14" lengthAdjust="spacing" textLength="264" x="363" y="138.8997">unordered_set&lt;Observer *&gt; observers_</text><line style="stroke:#000000;stroke-width:0.5;" x1="344" x2="832" y1="147.0017" y2="147.0017"/><ellipse cx="354" cy="162.0356" fill="#84BE84" rx="3" ry="3" style="stroke:#038048;stroke-width:1.0;"/><text fill="#000000" font-family="sans-serif" font-size="14" lengthAdjust="spacing" textLength="225" x="363" y="165.9676">addObserver(observer: Observer)</text><ellipse cx="354" cy="181.1035" fill="#84BE84" rx="3" ry="3" style="stroke:#038048;stroke-width:1.0;"/><text fill="#000000" font-family="sans-serif" font-size="14" lengthAdjust="spacing" textLength="249" x="363" y="185.0355">removeObserver(observer: Observer)</text><ellipse cx="354" cy="200.1715" fill="#84BE84" rx="3" ry="3" style="stroke:#038048;stroke-width:1.0;"/><text fill="#000000" font-family="sans-serif" font-size="14" lengthAdjust="spacing" textLength="464" x="363" y="204.1034">setMeasurements(temperature: float, humidity: float, pressure: float)</text><rect fill="#F24D5C" height="6" style="stroke:#C82930;stroke-width:1.0;" width="6" x="351" y="216.2394"/><text fill="#000000" font-family="sans-serif" font-size="14" lengthAdjust="spacing" textLength="170" x="363" y="223.1714">measurementsChanged()</text><rect fill="#F24D5C" height="6" style="stroke:#C82930;stroke-width:1.0;" width="6" x="351" y="235.3073"/><text fill="#000000" font-family="sans-serif" font-size="14" lengthAdjust="spacing" textLength="115" x="363" y="242.2393">notifyObservers()</text></g><!--class Observer--><g id="elem_Observer"><rect codeLine="44" fill="#FFFFFF" height="67.0679" id="Observer" rx="2.5" ry="2.5" style="stroke:#000000;stroke-width:0.5;" width="417" x="949" y="7"/><ellipse cx="1128.75" cy="23" fill="#B4A7E5" rx="11" ry="11" style="stroke:#181818;stroke-width:1.0;"/><path d="M1130.8438,29.5 L1125.9375,29.5 L1125.9375,28.125 L1127.3594,27.8125 L1127.3594,18.5313 L1125.9375,18.1875 L1125.9375,16.8281 L1130.8438,16.8281 L1130.8438,18.1875 L1129.4219,18.5313 L1129.4219,27.8125 L1130.8438,28.125 L1130.8438,29.5 Z " fill="#000000"/><text fill="#000000" font-family="sans-serif" font-size="12" font-style="italic" lengthAdjust="spacing" textLength="49" x="1149.25" y="27.656">Observer</text><line style="stroke:#000000;stroke-width:0.5;" x1="950" x2="1365" y1="39" y2="39"/><line style="stroke:#000000;stroke-width:0.5;" x1="950" x2="1365" y1="47" y2="47"/><ellipse cx="960" cy="62.034" fill="#84BE84" rx="3" ry="3" style="stroke:#038048;stroke-width:1.0;"/><text fill="#000000" font-family="sans-serif" font-size="14" lengthAdjust="spacing" textLength="391" x="969" y="65.9659">update(temperature: float, humidity: float, pressure: float)</text></g><!--class DisplayElement--><g id="elem_DisplayElement"><rect codeLine="48" fill="#FFFFFF" height="67.0679" id="DisplayElement" rx="2.5" ry="2.5" style="stroke:#000000;stroke-width:0.5;" width="122" x="1096.5" y="297"/><ellipse cx="1115.1" cy="313" fill="#B4A7E5" rx="11" ry="11" style="stroke:#181818;stroke-width:1.0;"/><path d="M1117.1938,319.5 L1112.2875,319.5 L1112.2875,318.125 L1113.7094,317.8125 L1113.7094,308.5313 L1112.2875,308.1875 L1112.2875,306.8281 L1117.1938,306.8281 L1117.1938,308.1875 L1115.7719,308.5313 L1115.7719,317.8125 L1117.1938,318.125 L1117.1938,319.5 Z " fill="#000000"/><text fill="#000000" font-family="sans-serif" font-size="12" font-style="italic" lengthAdjust="spacing" textLength="82" x="1129.9" y="317.656">DisplayElement</text><line style="stroke:#000000;stroke-width:0.5;" x1="1097.5" x2="1217.5" y1="329" y2="329"/><line style="stroke:#000000;stroke-width:0.5;" x1="1097.5" x2="1217.5" y1="337" y2="337"/><ellipse cx="1107.5" cy="352.034" fill="#84BE84" rx="3" ry="3" style="stroke:#038048;stroke-width:1.0;"/><text fill="#000000" font-family="sans-serif" font-size="14" lengthAdjust="spacing" textLength="96" x="1116.5" y="355.9659">display() const</text></g><!--class CurrentConditionsObserver--><g id="elem_CurrentConditionsObserver"><rect codeLine="52" fill="#FFFFFF" height="162.4075" id="CurrentConditionsObserver" rx="2.5" ry="2.5" style="stroke:#000000;stroke-width:0.5;" width="417" x="1427" y="145.33"/><ellipse cx="1554.25" cy="161.33" fill="#ADD1B2" rx="11" ry="11" style="stroke:#181818;stroke-width:1.0;"/><path d="M1554.3594,156.8612 Q1553.4375,156.8612 1552.7031,157.1737 Q1551.9844,157.4862 1551.4844,158.08 Q1550.9844,158.6581 1550.7031,159.5331 Q1550.4375,160.4081 1550.4375,161.5019 Q1550.4375,162.9394 1550.875,163.9862 Q1551.3281,165.0331 1552.1719,165.58 Q1553.0313,166.1269 1554.3438,166.1269 Q1555.125,166.1269 1555.8125,166.0019 Q1556.5156,165.8612 1557.5156,165.5487 L1557.5156,167.4237 Q1556.6563,167.7519 1555.8906,167.8769 Q1555.1406,168.0019 1554.125,168.0019 Q1552.2031,168.0019 1550.8906,167.205 Q1549.5938,166.3925 1548.9375,164.9237 Q1548.2813,163.4394 1548.2813,161.4706 Q1548.2813,160.0487 1548.6719,158.8769 Q1549.0781,157.6894 1549.8594,156.8144 Q1550.6406,155.9394 1551.7813,155.4706 Q1552.9219,154.9862 1554.3906,154.9862 Q1555.3438,154.9862 1556.2344,155.1894 Q1557.1406,155.3769 1558.0781,155.8456 L1557.25,157.6269 Q1556.4688,157.2519 1555.8125,157.0644 Q1555.1563,156.8612 1554.3594,156.8612 Z " fill="#000000"/><text fill="#000000" font-family="sans-serif" font-size="12" lengthAdjust="spacing" textLength="154" x="1574.75" y="165.986">CurrentConditionsObserver</text><line style="stroke:#000000;stroke-width:0.5;" x1="1428" x2="1843" y1="177.33" y2="177.33"/><rect fill="none" height="6" style="stroke:#C82930;stroke-width:1.0;" width="6" x="1435" y="189.364"/><text fill="#000000" font-family="sans-serif" font-size="14" lengthAdjust="spacing" textLength="125" x="1447" y="196.2959">float temperature_</text><rect fill="none" height="6" style="stroke:#C82930;stroke-width:1.0;" width="6" x="1435" y="208.4319"/><text fill="#000000" font-family="sans-serif" font-size="14" lengthAdjust="spacing" textLength="100" x="1447" y="215.3639">float humidity_</text><rect fill="none" height="6" style="stroke:#C82930;stroke-width:1.0;" width="6" x="1435" y="227.4998"/><text fill="#000000" font-family="sans-serif" font-size="14" lengthAdjust="spacing" textLength="100" x="1447" y="234.4318">float pressure_</text><rect fill="none" height="6" style="stroke:#C82930;stroke-width:1.0;" width="6" x="1435" y="246.5677"/><text fill="#000000" font-family="sans-serif" font-size="14" lengthAdjust="spacing" textLength="227" x="1447" y="253.4997">std::shared_ptr&lt;Subject&gt; subject_</text><line style="stroke:#000000;stroke-width:0.5;" x1="1428" x2="1843" y1="261.6017" y2="261.6017"/><ellipse cx="1438" cy="276.6356" fill="#84BE84" rx="3" ry="3" style="stroke:#038048;stroke-width:1.0;"/><text fill="#000000" font-family="sans-serif" font-size="14" lengthAdjust="spacing" textLength="391" x="1447" y="280.5676">update(temperature: float, humidity: float, pressure: float)</text><ellipse cx="1438" cy="295.7035" fill="#84BE84" rx="3" ry="3" style="stroke:#038048;stroke-width:1.0;"/><text fill="#000000" font-family="sans-serif" font-size="14" lengthAdjust="spacing" textLength="96" x="1447" y="299.6355">display() const</text></g><g id="elem_GMN12"><path d="M1023.5,108.98 L1023.5,136.54 L833.38,140.54 L1023.5,144.54 L1023.5,172.098 A0,0 0 0 0 1023.5,172.098 L1291.5,172.098 A0,0 0 0 0 1291.5,172.098 L1291.5,118.98 L1281.5,108.98 L1023.5,108.98 A0,0 0 0 0 1023.5,108.98 " fill="#FFFFE0" style="stroke:#000000;stroke-width:0.5;"/><path d="M1281.5,108.98 L1281.5,118.98 L1291.5,118.98 L1281.5,108.98 " fill="#FFFFE0" style="stroke:#000000;stroke-width:0.5;"/><text fill="#000000" font-family="sans-serif" font-size="13" lengthAdjust="spacing" textLength="234" x="1029.5" y="127.877">This class is responsible for maintaining</text><text fill="#000000" font-family="sans-serif" font-size="13" lengthAdjust="spacing" textLength="247" x="1029.5" y="145.583">the weather data and notifying observers</text><text fill="#000000" font-family="sans-serif" font-size="13" lengthAdjust="spacing" textLength="117" x="1029.5" y="163.289">about any changes.</text></g><g id="elem_GMN15"><path d="M1905,203.83 L1905,222.54 L1844.28,226.54 L1905,230.54 L1905,249.242 A0,0 0 0 0 1905,249.242 L2234,249.242 A0,0 0 0 0 2234,249.242 L2234,213.83 L2224,203.83 L1905,203.83 A0,0 0 0 0 1905,203.83 " fill="#FFFFE0" style="stroke:#000000;stroke-width:0.5;"/><path d="M2224,203.83 L2224,213.83 L2234,213.83 L2224,203.83 " fill="#FFFFE0" style="stroke:#000000;stroke-width:0.5;"/><text fill="#000000" font-family="sans-serif" font-size="13" lengthAdjust="spacing" textLength="308" x="1911" y="222.727">This class implements Observer and DisplayElement</text><text fill="#000000" font-family="sans-serif" font-size="13" lengthAdjust="spacing" textLength="226" x="1911" y="240.433">to display current weather conditions.</text></g><!--reverse link Subject to WeatherStation--><g id="link_Subject_WeatherStation"><path codeLine="62" d="M303.71,140.54 C316.52,140.54 329.64,140.54 342.88,140.54 " fill="none" id="Subject-backto-WeatherStation" style="stroke:#333333;stroke-width:1.0;"/><polygon fill="none" points="303.99,147.54,283.98,140.54,303.98,133.54,303.99,147.54" style="stroke:#333333;stroke-width:1.0;"/></g><!--reverse link Observer to CurrentConditionsObserver--><g id="link_Observer_CurrentConditionsObserver"><path codeLine="63" d="M1333.95,80.67 C1344.88,84.09 1355.64,87.71 1366,91.54 C1406.26,106.39 1448.37,125.63 1486.98,144.92 " fill="none" id="Observer-backto-CurrentConditionsObserver" style="stroke:#333333;stroke-width:1.0;"/><polygon fill="none" points="1332.09,87.42,1314.94,74.98,1336.11,74.01,1332.09,87.42" style="stroke:#333333;stroke-width:1.0;"/></g><!--reverse link DisplayElement to CurrentConditionsObserver--><g id="link_DisplayElement_CurrentConditionsObserver"><path codeLine="64" d="M1239.74,312.79 C1291.29,301.52 1360.51,286.4 1426.59,271.96 " fill="none" id="DisplayElement-backto-CurrentConditionsObserver" style="stroke:#333333;stroke-width:1.0;"/><polygon fill="none" points="1241.3,319.61,1220.26,317.04,1238.31,305.93,1241.3,319.61" style="stroke:#333333;stroke-width:1.0;"/></g><!--link WeatherStation to Observer--><g id="link_WeatherStation_Observer"><path codeLine="66" d="M833.38,97.47 C876.91,89.8 921.7,81.91 963.54,74.54 " fill="none" id="WeatherStation-Observer" style="stroke:#333333;stroke-width:1.0;"/><text fill="#000000" font-family="sans-serif" font-size="13" lengthAdjust="spacing" textLength="54" x="864" y="81.437">observes</text><text fill="#000000" font-family="sans-serif" font-size="13" lengthAdjust="spacing" textLength="7" x="840.7686" y="110.3513">1</text><text fill="#000000" font-family="sans-serif" font-size="13" lengthAdjust="spacing" textLength="34" x="906.4663" y="93.1247">many</text></g><!--link CurrentConditionsObserver to WeatherStation--><g id="link_CurrentConditionsObserver_WeatherStation"><path codeLine="67" d="M1426.57,229.72 C1290.36,229.68 1108.66,225.6 949,208.54 C913.43,204.73 876.11,199.32 839.53,193.19 " fill="none" id="CurrentConditionsObserver-to-WeatherStation" style="stroke:#333333;stroke-width:1.0;stroke-dasharray:7.0,7.0;"/><polygon fill="#333333" points="834.68,192.37,842.8949,197.8029,839.6112,193.1966,844.2174,189.913,834.68,192.37" style="stroke:#333333;stroke-width:1.0;"/><text fill="#000000" font-family="sans-serif" font-size="13" lengthAdjust="spacing" textLength="74" x="1120.5" y="204.437">dependency</text></g><!--SRC=[hLHDRzim3BthLn3PeScw1EbsCu80MzhUXXqoOCT0jkXOgoqPejp2s_hV9ql-YeUaG3iP1WpwYNny_BY2MqobGY1RvqYC7gGgkU45n3nvE1fTAR7JkJRmxdxTF2D4adCY-Ct0dI__eFq9_xGHQ5hxsXzllzVAxkKlX9kFx7daLogB9kK9dlDzjswUL_dcnkYdrczxwvC_9oYbBLvAx4BmPyQkEarpNklAWf064okrOZcc5gm68u_Ps3vSyPeY0LTYq87O8Cc-Yd-wMvxTDN0XliM4vX7DNBSV4NIcXSSOBFGZlW1RDZdBjEviD5yqgOGI_q1kCpHxonksFlGIqbnpbmmM9HfkAuE7aJch2YcahSUsqY1HZwkK5m_5WT1kkh3mVWiTGJhytnIlmKNwYhpXKA2oD1-HZmB93ptptj3HRWr1h6BaPfTnTKGnlo3ZKBu-qL2_gXJSuYk9d3Y-bLIwVhlBFQdMlGZ6-G8IhSWE5TrLnZZOJYiNmjMKJdYzkRXaHHHHnflobjPisgRT0eMFmzkJFvDUFqW6Sz-jbCcIM3Srcp_BvQITMP-w_tbM6JPH-0KqcmpDx6O6xiAiuAgU3MqGTUrEx7nDLgljT0OZ45YY4gYIkidwin1-Qn7pkoii69rESsssrlTCKhkxtOVJjNInP9mZf6wF5Tprb7kbEdgqkmrFmGcuSd6_cKAJEyWmh1xCusRVkGmXyKD1AuO1Zcn2xBnoKuv56HIdGRM6msav0bVTjGGamNrFFUdZZ2Zz1G00]--></g></svg>